<svg width="375" height="667" viewBox="0 0 375 667" fill="none" xmlns="http://www.w3.org/2000/svg">
<rect x="263.619" y="239.917" width="15.2935" height="6" rx="3" transform="rotate(10 263.619 239.917)" fill="#5B00D7"/>
<rect x="127" y="587.814" width="15.2935" height="6" rx="3" transform="rotate(-45 127 587.814)" fill="#5A00E6"/>
<rect x="181.042" y="529" width="15.2935" height="6" rx="3" transform="rotate(10 181.042 529)" fill="#5A00E6"/>
<rect x="343" y="243.885" width="15.2935" height="6" rx="3" transform="rotate(-51 343 243.885)" fill="#5A00E6"/>
<rect x="202" y="464.885" width="15.2935" height="6" rx="3" transform="rotate(-51 202 464.885)" fill="#5B00D7"/>
<rect x="103" y="220.885" width="15.2935" height="6" rx="3" transform="rotate(-51 103 220.885)" fill="#5B00D7"/>
<rect x="289.459" y="355" width="15.2935" height="6" rx="3" transform="rotate(48 289.459 355)" fill="#5B00D7"/>
<rect x="233.817" y="406" width="15.2935" height="6" rx="3" transform="rotate(28 233.817 406)" fill="#6C0AF8"/>
<rect x="142.232" y="290.06" width="15.2935" height="6" rx="3" transform="rotate(128 142.232 290.06)" fill="#6C0AF8"/>
<rect x="52.8168" y="435" width="15.2935" height="6" rx="3" transform="rotate(28 52.8168 435)" fill="#5A00E6"/>
<rect x="343" y="413.109" width="15.2935" height="6" rx="3" transform="rotate(-59 343 413.109)" fill="#5A00E6"/>
<rect x="129" y="644.109" width="15.2935" height="6" rx="3" transform="rotate(-59 129 644.109)" fill="#5B00D7"/>
<rect x="23" y="489.958" width="15.2935" height="6" rx="3" transform="rotate(-15 23 489.958)" fill="#6C0AF8"/>
<rect x="29" y="45.0513" width="15.2935" height="6" rx="3" transform="rotate(-52 29 45.0513)" fill="#5B00D7"/>
<rect x="94" y="525.051" width="15.2935" height="6" rx="3" transform="rotate(-52 94 525.051)" fill="#5B00D7"/>
<rect x="285" y="643.051" width="15.2935" height="6" rx="3" transform="rotate(-52 285 643.051)" fill="#5A00E6"/>
<rect x="123" y="458.001" width="15.2935" height="6" rx="3" transform="rotate(-46 123 458.001)" fill="#6C0AF8"/>
<rect x="259" y="519.001" width="15.2935" height="6" rx="3" transform="rotate(-46 259 519.001)" fill="#5A00E6"/>
<rect x="14" y="379.001" width="15.2935" height="6" rx="3" transform="rotate(-46 14 379.001)" fill="#6C0AF8"/>
<rect x="266" y="122.001" width="15.2935" height="6" rx="3" transform="rotate(-46 266 122.001)" fill="#5B00D7"/>
<rect x="246.461" y="171.075" width="15.2935" height="6" rx="3" transform="rotate(31 246.461 171.075)" fill="#5A00E6"/>
<rect x="317.453" y="174.51" width="15.2935" height="6" rx="3" fill="#5B00D7"/>
<rect x="106.09" y="376" width="15.2935" height="6" rx="3" transform="rotate(31 106.09 376)" fill="#5B00D7"/>
<rect x="355.09" y="311" width="15.2935" height="6" rx="3" transform="rotate(31 355.09 311)" fill="#5B00D7"/>
<rect x="300.09" y="462" width="15.2935" height="6" rx="3" transform="rotate(31 300.09 462)" fill="#6C0AF8"/>
<rect x="75.459" y="147" width="15.2935" height="6" rx="3" transform="rotate(48 75.459 147)" fill="#6C0AF8"/>
<rect x="256.459" y="573" width="15.2935" height="6" rx="3" transform="rotate(48 256.459 573)" fill="#5B00D7"/>
<rect x="117.909" y="93" width="15.2935" height="6" rx="3" transform="rotate(29 117.909 93)" fill="#5B00D7"/>
<rect x="220.909" y="74" width="15.2935" height="6" rx="3" transform="rotate(29 220.909 74)" fill="#6C0AF8"/>
<rect x="34" y="233.105" width="15.2935" height="6" rx="3" transform="rotate(-81 34 233.105)" fill="#6C0AF8"/>
<rect x="169.633" y="157.441" width="15.2935" height="6" rx="3" transform="rotate(-86 169.633 157.441)" fill="#5A00E6"/>
<rect x="207.084" y="361.886" width="15.2935" height="6" rx="3" transform="rotate(-154 207.084 361.886)" fill="#5A00E6"/>
<rect x="58" y="310.256" width="15.2935" height="6" rx="3" transform="rotate(-86 58 310.256)" fill="#5A00E6"/>
<rect x="304" y="304.256" width="15.2935" height="6" rx="3" transform="rotate(-86 304 304.256)" fill="#6C0AF8"/>
<rect x="349" y="119.256" width="15.2935" height="6" rx="3" transform="rotate(-86 349 119.256)" fill="#6C0AF8"/>
<rect x="354" y="619.256" width="15.2935" height="6" rx="3" transform="rotate(-86 354 619.256)" fill="#5B00D7"/>
<rect x="62.4589" y="593" width="15.2935" height="6" rx="3" transform="rotate(48 62.4589 593)" fill="#6C0AF8"/>
<rect x="327" y="552" width="15.2935" height="6" rx="3" fill="#6C0AF8"/>
<rect x="323.09" y="47" width="15.2935" height="6" rx="3" transform="rotate(31 323.09 47)" fill="#5B00D7"/>
<rect x="215.247" y="289" width="15.2935" height="6" rx="3" transform="rotate(12 215.247 289)" fill="#5A00E6"/>
<rect x="92" y="40.958" width="15.2935" height="6" rx="3" transform="rotate(-15 92 40.958)" fill="#6C0AF8"/>
<rect x="23" y="562.001" width="15.2935" height="6" rx="3" transform="rotate(-46 23 562.001)" fill="#5A00E6"/>
<rect x="196" y="610" width="15.2935" height="6" rx="3" fill="#6C0AF8"/>
<rect x="182.459" y="218" width="15.2935" height="6" rx="3" transform="rotate(48 182.459 218)" fill="#6C0AF8"/>
<rect x="159.434" y="53.896" width="15.2935" height="6" rx="3" transform="rotate(-37 159.434 53.896)" fill="#5A00E6"/>
<rect x="23" y="110.001" width="15.2935" height="6" rx="3" transform="rotate(-46 23 110.001)" fill="#5A00E6"/>
<rect x="348" y="504.679" width="15.2935" height="6" rx="3" transform="rotate(-56 348 504.679)" fill="#5B00D7"/>
<rect x="256" y="40.6787" width="15.2935" height="6" rx="3" transform="rotate(-56 256 40.6787)" fill="#5A00E6"/>
</svg>
